Coordinates
version=1
nRows=10
nColumns=40
inDegrees=yes

Units are S.I. units (second, meters, Newtons, ...)
Angles are in degrees.

endheader
time	pelvis_tilt	pelvis_list	pelvis_rotation	pelvis_tx	pelvis_ty	pelvis_tz	hip_flexion_r	hip_adduction_r	hip_rotation_r	knee_angle_r	knee_angle_r_beta	ankle_angle_r	subtalar_angle_r	mtp_angle_r	hip_flexion_l	hip_adduction_l	hip_rotation_l	knee_angle_l	knee_angle_l_beta	ankle_angle_l	subtalar_angle_l	mtp_angle_l	lumbar_extension	lumbar_bending	lumbar_rotation	arm_flex_r	arm_add_r	arm_rot_r	elbow_flex_r	pro_sup_r	wrist_flex_r	wrist_dev_r	arm_flex_l	arm_add_l	arm_rot_l	elbow_flex_l	pro_sup_l	wrist_flex_l	wrist_dev_l
     27.55750000	     -0.84262872	     -5.45316028	     -1.16281138	      1.09876328	      0.93859049	      0.40977643	     26.88989938	     -5.79016658	     -6.69041292	     47.30762592	     47.30762592	      2.91677990	     -7.49772068	     -2.56079421	      9.97660454	     -6.75341295	    -11.76803885	     21.14356481	     21.14356481	     14.65134440	     -4.63106643	     -2.97942099	    -10.12645025	      4.45199247	      0.50802563	      1.72511334	    -13.91309757	      1.25459905	     42.36146713	     46.13807047	      0.00000000	      0.00000000	     21.67445004	    -17.15318527	      3.12286042	     55.83335821	     45.85870614	      0.00000000	      0.00000000
     27.57100000	     -0.96966151	     -5.37793679	     -1.37424228	      1.09813102	      0.93866400	      0.40936544	     26.81404573	     -5.68639947	     -6.86123138	     43.46058900	     43.46058900	      2.81231404	     -6.19893325	     -2.39085400	      9.42049173	     -6.58107285	    -12.03369608	     20.54885466	     20.54885466	     14.75719901	     -4.49365977	     -3.06434731	    -10.15051883	      4.38118950	      0.64817137	     -0.02988792	    -14.01745997	      1.50212206	     40.50858772	     46.17415106	      0.00000000	      0.00000000	     22.50706330	    -17.20458576	      2.59639853	     57.03493851	     45.94038857	      0.00000000	      0.00000000
     27.58450000	     -1.27142391	     -5.34878447	     -1.55545469	      1.09736479	      0.93830809	      0.40916760	     26.79900265	     -5.46411798	     -7.07774661	     39.34335394	     39.34335394	      2.60233237	     -4.97124874	     -1.88545282	      9.18942993	     -6.48891377	    -12.19733713	     20.16921332	     20.16921332	     14.91874837	     -4.43206824	     -3.16192091	     -9.97168871	      4.37158504	      0.52430067	     -1.79045700	    -14.01760769	      1.64377090	     39.26187746	     46.19947905	      0.00000000	      0.00000000	     23.23626615	    -17.55707942	      2.23937498	     57.77944244	     45.98992025	      0.00000000	      0.00000000
     27.59800000	     -1.28951176	     -5.18264253	     -1.74959820	      1.09686190	      0.93827399	      0.40887142	     26.20739708	     -5.44459450	     -7.60040850	     34.77239646	     34.77239646	      1.90480131	     -3.29922599	     -3.07543068	      8.50087716	     -6.19870951	    -12.41899611	     19.51647757	     19.51647757	     14.69421898	     -4.47136280	     -4.05457196	    -10.10489410	      4.21685963	      0.12280529	     -1.73155833	    -13.64115779	      1.66178284	     33.85268477	     46.37396021	      0.00000000	      0.00000000	     23.17833696	    -17.78672234	      0.51319525	     60.33026698	     46.21966147	      0.00000000	      0.00000000
     27.61150000	     -1.61437369	     -5.09934794	     -1.91531477	      1.09619021	      0.93766506	      0.40888053	     25.90527134	     -5.19038461	     -8.05607000	     30.21071757	     30.21071757	      1.58761327	     -1.82646305	     -2.28196256	      8.31043768	     -6.05692682	    -12.54151621	     19.16961631	     19.16961631	     14.85318045	     -4.45181677	     -4.13991083	     -9.88631465	      4.20570963	      0.15887200	     -3.46805701	    -13.67060052	      1.73217713	     32.96093845	     46.38809558	      0.00000000	      0.00000000	     23.86361220	    -17.98124487	      0.19331270	     61.13917685	     46.26665517	      0.00000000	      0.00000000
     27.62500000	     -1.78354138	     -4.97945051	     -2.08336966	      1.09568447	      0.93715414	      0.40900734	     25.29542293	     -4.95453704	     -8.75487924	     25.58275275	     25.58275275	      1.23632426	      0.06504652	     -1.44381885	      7.92016200	     -5.87325997	    -12.67799284	     18.79367800	     18.79367800	     15.03066173	     -4.43254437	     -4.29706326	     -9.86091116	      4.13237188	      0.37664872	     -5.14814675	    -13.76745687	      1.77048909	     31.89444099	     46.41190582	      0.00000000	      0.00000000	     24.55504261	    -18.00014970	     -0.17879902	     62.23000558	     46.32219961	      0.00000000	      0.00000000
     27.63850000	     -1.85399403	     -4.81654240	     -2.25860830	      1.09538432	      0.93668813	      0.40927599	     24.53434847	     -4.73172381	     -9.70910256	     21.14503119	     21.14503119	      0.84452821	      2.21722019	     -0.45887061	      7.39071123	     -5.64006650	    -12.82810993	     18.37665400	     18.37665400	     15.15703299	     -4.42353614	     -4.54867180	     -9.95306950	      4.01124584	      0.64656094	     -6.74468955	    -13.86171956	      1.73439411	     30.73219873	     46.44458321	      0.00000000	      0.00000000	     25.12446814	    -18.01875899	     -0.67263882	     63.54713831	     46.39106072	      0.00000000	      0.00000000
     27.65200000	     -2.03468528	     -4.60800922	     -2.46361802	      1.09514610	      0.93594527	      0.40981623	     23.96983030	     -4.45889983	    -10.61733510	     17.17632971	     17.17632971	      0.51659099	      4.19847612	      0.74212383	      6.97689507	     -5.37667842	    -12.98513657	     17.96399610	     17.96399610	     15.27152486	     -4.43165124	     -4.84933797	     -9.84578773	      3.82316770	      0.78799387	     -8.15602909	    -13.82108060	      1.65807928	     29.79678881	     46.47276587	      0.00000000	      0.00000000	     25.53039291	    -18.11013032	     -1.16733690	     64.77830143	     46.45674480	      0.00000000	      0.00000000
     27.66550000	     -2.04057500	     -4.39936371	     -2.67673428	      1.09513357	      0.93542002	      0.41054006	     23.34708687	     -4.19979983	    -11.83163722	     13.93313899	     13.93313899	      0.52146398	      6.49233315	      2.48164621	      6.29532683	     -5.10125771	    -13.16922807	     17.43138590	     17.43138590	     15.27662770	     -4.46420069	     -5.36614931	     -9.97761083	      3.63815572	      0.93139085	     -9.42267019	    -13.78277518	      1.41299475	     28.87711279	     46.51111649	      0.00000000	      0.00000000	     25.73761411	    -18.25390986	     -1.92826866	     66.42961140	     46.55179959	      0.00000000	      0.00000000
     27.67900000	     -2.21347868	     -4.14584756	     -2.91885442	      1.09513125	      0.93472516	      0.41137870	     23.30634337	     -4.05999114	    -13.20314564	     12.02459177	     12.02459177	      1.60349652	      8.86255442	      6.66395600	      5.68268445	     -4.73504617	    -13.24816657	     16.62342350	     16.62342350	     14.80415510	     -4.79700893	     -6.71449587	     -9.90530437	      3.42043929	      0.53402010	    -10.22969722	    -13.67490721	      0.48704088	     28.04689007	     46.58340544	      0.00000000	      0.00000000	     25.04993126	    -18.57288532	     -3.57226150	     69.05139358	     46.74621946	      0.00000000	      0.00000000
